<?xml version="1.0" standalone="no"?>
<!DOCTYPE svg PUBLIC "-//W3C//DTD SVG 20010904//EN"
 "http://www.w3.org/TR/2001/REC-SVG-20010904/DTD/svg10.dtd">
<svg version="1.0" xmlns="http://www.w3.org/2000/svg"
 width="641.000000pt" height="641.000000pt" viewBox="0 0 641.000000 641.000000"
 preserveAspectRatio="xMidYMid meet">
<metadata>
Created by potrace 1.11, written by Peter Selinger 2001-2013
</metadata>
<g transform="translate(0.000000,641.000000) scale(0.100000,-0.100000)"
fill="#000000" stroke="none">
<path d="M2980 6095 c-413 -60 -663 -278 -805 -701 -34 -102 -89 -315 -101
-389 -3 -22 -7 -42 -9 -45 -2 -3 -6 -26 -10 -50 -5 -38 -13 -81 -39 -212 -2
-7 -6 -31 -10 -53 -114 -613 -244 -966 -478 -1298 -39 -56 -74 -104 -77 -107
-3 -3 -28 -32 -56 -65 -122 -148 -300 -320 -555 -540 -69 -59 -152 -130 -185
-158 -32 -29 -77 -68 -100 -86 -87 -75 -293 -290 -348 -364 -97 -130 -171
-288 -195 -417 -11 -59 -7 -272 7 -330 48 -205 184 -477 313 -625 97 -111 247
-231 333 -265 92 -38 100 -40 187 -60 57 -13 112 -17 205 -15 236 4 391 43
906 224 597 211 885 275 1237 275 160 0 254 -8 410 -35 243 -42 398 -88 1085
-325 185 -64 361 -110 505 -132 59 -9 261 -9 325 1 229 33 436 171 607 405 97
134 187 308 232 449 34 110 41 157 40 298 0 337 -160 582 -659 1010 -172 147
-178 152 -295 256 -490 431 -723 759 -885 1245 -40 120 -107 367 -118 439 -3
17 -12 64 -21 105 -8 41 -18 89 -21 105 -13 67 -36 192 -40 220 -3 17 -17 84
-31 150 -14 66 -27 133 -30 150 -20 103 -99 334 -149 435 -133 263 -352 432
-635 489 -30 6 -66 14 -80 17 -51 12 -377 11 -460 -1z"/>
</g>
</svg>
